<svg width="63" height="42" viewBox="0 0 63 42" fill="none" xmlns="http://www.w3.org/2000/svg">
<path d="M62.8558 28.024L61.9918 32.344L59.9758 36.376C59.0158 37.72 57.2878 39.064 54.7918 40.408C53.6398 40.984 51.6238 41.464 48.7438 41.848L44.4238 41.272L40.3918 38.968C38.8558 37.816 37.6078 36.376 36.6478 34.648C35.8798 32.92 35.3038 30.616 34.9198 27.736L35.7838 23.416L37.7998 19.384L52.4878 0.375982L59.1118 5.27199L52.1998 14.488L54.7918 15.352L57.3838 16.792C58.9198 17.752 60.2638 19.48 61.4158 21.976C61.9918 23.128 62.4718 25.144 62.8558 28.024ZM28.2958 28.024L27.4318 32.344L25.4158 36.376C24.4558 37.72 22.7278 39.064 20.2318 40.408C19.0798 40.984 17.0638 41.464 14.1838 41.848L9.86375 41.272L5.83175 38.968C4.29575 37.816 3.04775 36.376 2.08775 34.648C1.31975 32.92 0.74375 30.616 0.35975 27.736L1.22375 23.416L3.23975 19.384L17.9278 0.375982L24.5518 5.27199L17.6398 14.488L20.2318 15.352L22.8238 16.792C24.3598 17.752 25.7038 19.48 26.8558 21.976C27.4318 23.128 27.9118 25.144 28.2958 28.024Z" fill="white"/>
</svg>
