<svg width="133" height="150" viewBox="0 0 133 150" fill="none" xmlns="http://www.w3.org/2000/svg">
<path d="M5.5544 146.493V149.779C5.5544 149.815 5.54597 149.848 5.5282 149.875C5.51182 149.904 5.48141 149.926 5.43861 149.941C5.39557 149.957 5.33826 149.97 5.26551 149.982C5.1937 149.993 5.10645 150 5.00399 150C4.89709 150 4.80891 149.994 4.7378 149.982C4.66762 149.97 4.61055 149.957 4.56587 149.941C4.52143 149.925 4.48985 149.903 4.47277 149.875C4.45616 149.848 4.44727 149.816 4.44727 149.779V146.493L2.09105 141.463C2.04403 141.358 2.01479 141.275 2.00403 141.215C1.99327 141.156 2.00403 141.11 2.03655 141.078C2.06883 141.046 2.12754 141.025 2.21011 141.016C2.29385 141.007 2.40683 141.002 2.54812 141.002C2.67677 141.002 2.78086 141.007 2.86016 141.016C2.94016 141.025 3.00261 141.037 3.05057 141.054C3.09758 141.07 3.13291 141.092 3.15606 141.122C3.17946 141.152 3.20261 141.19 3.2232 141.236L4.37546 143.798C4.48236 144.041 4.58996 144.296 4.69639 144.563C4.80212 144.829 4.91113 145.098 5.022 145.368H5.03534C5.13335 145.106 5.23534 144.846 5.33943 144.587C5.44375 144.327 5.54948 144.071 5.65662 143.818L6.8152 141.241C6.829 141.195 6.84631 141.156 6.86993 141.124C6.89426 141.093 6.92607 141.068 6.96631 141.052C7.00724 141.036 7.06385 141.024 7.13706 141.014C7.20911 141.005 7.30221 141 7.41379 141C7.56817 141 7.68957 141.006 7.77752 141.017C7.86524 141.029 7.92676 141.051 7.96115 141.083C7.9953 141.114 8.007 141.161 7.996 141.22C7.98524 141.28 7.95624 141.36 7.90898 141.461L5.5544 146.493Z" fill="white"/>
<path d="M17.9387 149.536C17.9768 149.636 17.9977 149.718 17.9998 149.781C18.0022 149.843 17.9834 149.891 17.9453 149.922C17.9072 149.953 17.8435 149.975 17.755 149.984C17.6665 149.993 17.548 149.998 17.4001 149.998C17.2516 149.998 17.1331 149.994 17.0448 149.987C16.9564 149.982 16.889 149.97 16.8434 149.953C16.7982 149.937 16.764 149.915 16.7426 149.888C16.721 149.86 16.7006 149.825 16.6815 149.785L15.8842 147.614H12.0216L11.2603 149.758C11.2459 149.799 11.2266 149.835 11.2029 149.865C11.1788 149.894 11.1436 149.92 11.099 149.941C11.0533 149.962 10.9888 149.977 10.9051 149.986C10.8216 149.995 10.7125 150 10.5783 150C10.4397 150 10.3265 149.995 10.2369 149.983C10.1485 149.972 10.0861 149.95 10.0503 149.917C10.0143 149.886 9.99787 149.838 10.0002 149.776C10.0028 149.714 10.0229 149.633 10.0613 149.531L13.1775 141.248C13.1968 141.198 13.2219 141.156 13.2529 141.124C13.284 141.093 13.3304 141.067 13.3902 141.048C13.4492 141.03 13.5267 141.017 13.6191 141.011C13.7125 141.003 13.8315 141 13.9743 141C14.1278 141 14.2543 141.003 14.3548 141.011C14.4564 141.016 14.5365 141.029 14.5991 141.048C14.661 141.066 14.709 141.093 14.7427 141.127C14.7761 141.162 14.8024 141.203 14.8217 141.254L17.9387 149.536ZM13.9388 142.224H13.9328L12.3316 146.669H15.5627L13.9388 142.224Z" fill="white"/>
<path d="M27 147.42C27 147.829 26.9297 148.195 26.7895 148.515C26.6493 148.835 26.4546 149.106 26.2048 149.328C25.9555 149.551 25.6631 149.719 25.3254 149.831C24.9882 149.944 24.6252 150 24.2362 150C23.9636 150 23.7116 149.974 23.4794 149.925C23.2467 149.875 23.0397 149.815 22.8575 149.742C22.6751 149.671 22.5224 149.597 22.3988 149.52C22.2756 149.443 22.1897 149.378 22.1413 149.324C22.0931 149.269 22.0575 149.201 22.0345 149.117C22.0112 149.034 22 148.923 22 148.784C22 148.685 22.0048 148.602 22.0128 148.537C22.021 148.471 22.0336 148.418 22.0505 148.378C22.0662 148.337 22.0879 148.309 22.113 148.293C22.1381 148.277 22.1673 148.269 22.2011 148.269C22.2596 148.269 22.3422 148.308 22.4491 148.384C22.5559 148.461 22.6927 148.543 22.8605 148.634C23.0278 148.724 23.2305 148.809 23.4666 148.887C23.7029 148.966 23.9755 149.005 24.2862 149.005C24.5204 149.005 24.7355 148.971 24.9295 148.904C25.1247 148.837 25.2919 148.741 25.432 148.617C25.5722 148.494 25.68 148.342 25.7555 148.162C25.8313 147.982 25.8683 147.777 25.8683 147.547C25.8683 147.299 25.816 147.088 25.7112 146.912C25.6071 146.736 25.4688 146.582 25.2973 146.449C25.1259 146.316 24.9293 146.194 24.7099 146.085C24.4903 145.974 24.2654 145.862 24.0346 145.747C23.804 145.632 23.5805 145.505 23.3627 145.364C23.1452 145.225 22.95 145.06 22.7783 144.872C22.6068 144.682 22.4678 144.461 22.3605 144.207C22.2536 143.952 22.2002 143.648 22.2002 143.291C22.2002 142.926 22.2621 142.601 22.3856 142.315C22.5093 142.029 22.6808 141.789 22.9006 141.595C23.1205 141.402 23.3821 141.254 23.6858 141.152C23.9901 141.05 24.3172 141 24.6691 141C24.8492 141 25.0305 141.017 25.2124 141.05C25.3946 141.084 25.5663 141.129 25.7275 141.186C25.8884 141.242 26.032 141.305 26.1576 141.375C26.2834 141.446 26.366 141.501 26.4057 141.544C26.4455 141.586 26.4715 141.62 26.484 141.645C26.4975 141.67 26.5078 141.701 26.5155 141.739C26.5238 141.778 26.5308 141.824 26.5345 141.878C26.5388 141.932 26.5409 142.002 26.5409 142.088C26.5409 142.169 26.5368 142.242 26.5313 142.304C26.5251 142.367 26.5149 142.42 26.5028 142.462C26.49 142.505 26.4724 142.537 26.4493 142.557C26.4263 142.577 26.4009 142.587 26.371 142.587C26.3247 142.587 26.2523 142.556 26.1544 142.492C26.0551 142.429 25.9348 142.359 25.793 142.279C25.6505 142.201 25.4823 142.128 25.2875 142.063C25.0926 141.998 24.8736 141.965 24.6309 141.965C24.4042 141.965 24.2077 141.997 24.0401 142.063C23.8732 142.128 23.7346 142.215 23.6262 142.323C23.5177 142.431 23.4356 142.559 23.3814 142.708C23.3269 142.856 23.2999 143.014 23.2999 143.181C23.2999 143.424 23.3522 143.634 23.457 143.809C23.562 143.985 23.7011 144.14 23.875 144.276C24.0488 144.411 24.2465 144.535 24.4686 144.647C24.6905 144.76 24.9165 144.873 25.1478 144.989C25.3779 145.103 25.6037 145.229 25.8263 145.367C26.0482 145.504 26.2459 145.666 26.4199 145.853C26.5941 146.04 26.7347 146.26 26.8413 146.515C26.9466 146.774 27 147.074 27 147.42Z" fill="white"/>
<path d="M37 147.42C37 147.829 36.9154 148.195 36.7472 148.515C36.5792 148.835 36.3453 149.106 36.0462 149.328C35.7462 149.551 35.3953 149.719 34.991 149.831C34.5855 149.944 34.15 150 33.6832 150C33.3567 150 33.0537 149.974 32.7748 149.925C32.4968 149.875 32.2472 149.815 32.0286 149.742C31.81 149.671 31.6268 149.597 31.4794 149.52C31.3309 149.443 31.2279 149.378 31.1704 149.324C31.1123 149.269 31.0696 149.201 31.0422 149.117C31.0142 149.034 31 148.923 31 148.784C31 148.685 31.0058 148.602 31.0162 148.537C31.0252 148.471 31.0411 148.418 31.0611 148.378C31.0814 148.337 31.1063 148.309 31.1364 148.293C31.1663 148.277 31.2016 148.269 31.2419 148.269C31.3128 148.269 31.4115 148.308 31.5394 148.384C31.6676 148.461 31.8319 148.543 32.0338 148.634C32.2341 148.724 32.4771 148.809 32.7603 148.887C33.0441 148.966 33.372 149.005 33.7446 149.005C34.0259 149.005 34.2839 148.971 34.5171 148.904C34.7504 148.837 34.9518 148.741 35.12 148.617C35.2882 148.494 35.4175 148.342 35.5081 148.162C35.5988 147.982 35.6432 147.777 35.6432 147.547C35.6432 147.299 35.5805 147.088 35.4553 146.912C35.3295 146.736 35.1641 146.582 34.9581 146.449C34.7524 146.316 34.5173 146.194 34.2533 146.085C33.9897 145.974 33.7196 145.862 33.443 145.747C33.1666 145.632 32.8978 145.505 32.6376 145.364C32.3752 145.225 32.142 145.06 31.9363 144.872C31.7306 144.682 31.5635 144.461 31.435 144.207C31.3068 143.952 31.2427 143.648 31.2427 143.291C31.2427 142.926 31.3169 142.601 31.4654 142.315C31.6139 142.029 31.8193 141.789 32.0837 141.595C32.3472 141.402 32.6611 141.254 33.0258 141.152C33.3901 141.05 33.7837 141 34.205 141C34.4209 141 34.6384 141.017 34.8567 141.05C35.0753 141.084 35.2811 141.129 35.4747 141.186C35.6679 141.242 35.841 141.305 35.9908 141.375C36.1415 141.446 36.2417 141.501 36.2886 141.544C36.336 141.587 36.3683 141.62 36.3836 141.645C36.3987 141.669 36.411 141.701 36.4214 141.739C36.431 141.778 36.4387 141.824 36.4434 141.878C36.4488 141.932 36.4502 142.002 36.4502 142.088C36.4502 142.169 36.4467 142.242 36.4387 142.304C36.4324 142.367 36.4204 142.42 36.4053 142.462C36.3894 142.505 36.3691 142.537 36.3412 142.557C36.3127 142.577 36.2826 142.587 36.2467 142.587C36.1913 142.587 36.1042 142.556 35.9867 142.492C35.8681 142.429 35.7243 142.359 35.5531 142.279C35.3821 142.201 35.1803 142.128 34.9466 142.063C34.7126 141.998 34.4508 141.965 34.159 141.965C33.8878 141.965 33.6511 141.997 33.4506 142.063C33.2496 142.128 33.0836 142.215 32.9532 142.323C32.8225 142.431 32.7247 142.559 32.6592 142.708C32.5938 142.856 32.5623 143.014 32.5623 143.181C32.5623 143.424 32.625 143.634 32.7502 143.809C32.8756 143.985 33.0427 144.14 33.2512 144.276C33.4605 144.411 33.6972 144.535 33.9645 144.647C34.2302 144.76 34.5017 144.873 34.7787 144.989C35.0553 145.103 35.3265 145.229 35.5925 145.367C35.8588 145.504 36.0963 145.666 36.3058 145.853C36.514 146.04 36.6825 146.26 36.8107 146.515C36.9362 146.774 37 147.074 37 147.42Z" fill="white"/>
<path d="M42 149.78C42 149.816 41.9922 149.848 41.9761 149.876C41.9614 149.904 41.9337 149.926 41.8949 149.942C41.8558 149.958 41.805 149.971 41.741 149.983C41.6764 149.993 41.5969 150 41.4994 150C41.4065 150 41.3271 149.994 41.2613 149.983C41.1959 149.971 41.1429 149.957 41.1051 149.942C41.0663 149.926 41.039 149.904 41.0232 149.876C41.0084 149.849 41 149.817 41 149.78V141.22C41 141.183 41.0089 141.152 41.0264 141.123C41.0431 141.096 41.0722 141.074 41.1129 141.058C41.1537 141.042 41.2064 141.028 41.2697 141.017C41.3343 141.005 41.4101 141 41.4989 141C41.5958 141 41.676 141.005 41.7406 141.017C41.8048 141.029 41.855 141.043 41.8945 141.058C41.9333 141.074 41.9601 141.096 41.9757 141.123C41.9913 141.151 41.9996 141.183 41.9996 141.22L42 149.78Z" fill="white"/>
<path d="M54 149.469C54 149.562 53.9836 149.64 53.9519 149.705C53.9207 149.77 53.878 149.822 53.8263 149.864C53.7745 149.905 53.7163 149.935 53.6526 149.953C53.5883 149.971 53.5241 149.981 53.4599 149.981H53.0534C52.925 149.981 52.8124 149.968 52.7161 149.943C52.6199 149.917 52.5286 149.872 52.4426 149.805C52.3565 149.739 52.2699 149.647 52.1836 149.532C52.0975 149.417 52.0054 149.269 51.9084 149.09L49.084 144.005C48.9366 143.741 48.7873 143.467 48.6375 143.179C48.4875 142.89 48.3489 142.611 48.2188 142.339H48.2045C48.2139 142.67 48.2209 143.009 48.2259 143.355C48.2306 143.701 48.2321 144.044 48.2321 144.385V149.78C48.2321 149.812 48.2222 149.844 48.2022 149.873C48.1819 149.903 48.1471 149.926 48.0992 149.942C48.0511 149.958 47.9884 149.971 47.9104 149.983C47.8314 149.994 47.7328 150 47.6116 150C47.491 150 47.3914 149.994 47.3136 149.983C47.2359 149.971 47.1735 149.957 47.1287 149.942C47.0832 149.926 47.0502 149.903 47.0307 149.873C47.0104 149.844 47 149.812 47 149.78V141.532C47 141.348 47.0551 141.216 47.1631 141.137C47.2707 141.06 47.389 141.02 47.5175 141.02H48.1221C48.2651 141.02 48.3853 141.031 48.4807 141.054C48.5764 141.078 48.6625 141.116 48.7395 141.168C48.8159 141.222 48.8895 141.295 48.9613 141.39C49.0323 141.484 49.1077 141.603 49.186 141.745L51.3574 145.669C51.4916 145.909 51.6203 146.143 51.7449 146.37C51.8692 146.599 51.989 146.824 52.1048 147.044C52.2207 147.266 52.3344 147.484 52.447 147.698C52.5604 147.913 52.6722 148.128 52.783 148.344H52.7889C52.7798 147.981 52.7733 147.601 52.7715 147.207C52.7689 146.813 52.7674 146.435 52.7674 146.071V141.22C52.7674 141.189 52.7767 141.158 52.7978 141.131C52.8181 141.103 52.8519 141.079 52.8997 141.059C52.9478 141.038 53.011 141.023 53.0893 141.014C53.1673 141.005 53.2693 141 53.3949 141C53.5054 141 53.6013 141.005 53.682 141.014C53.7623 141.023 53.8253 141.038 53.8715 141.059C53.917 141.079 53.9493 141.103 53.9696 141.131C53.9899 141.159 53.9997 141.189 53.9997 141.22L54 149.469Z" fill="white"/>
<path d="M64 149.506C64 149.589 63.9944 149.662 63.9859 149.724C63.9765 149.788 63.9601 149.84 63.9374 149.882C63.9142 149.923 63.8869 149.954 63.8579 149.971C63.8276 149.99 63.793 150 63.7574 150H59.4441C59.337 150 59.2368 149.964 59.1421 149.891C59.047 149.82 59 149.694 59 149.513V141.487C59 141.306 59.0475 141.18 59.1421 141.108C59.2368 141.036 59.3375 141 59.4441 141H63.7089C63.7458 141 63.7794 141.009 63.8097 141.029C63.8387 141.046 63.8632 141.077 63.8826 141.118C63.9 141.16 63.9164 141.212 63.9281 141.274C63.9394 141.338 63.9452 141.415 63.9452 141.508C63.9452 141.591 63.9394 141.664 63.9281 141.727C63.9164 141.79 63.9003 141.84 63.8826 141.879C63.8642 141.92 63.8399 141.948 63.8097 141.968C63.7796 141.985 63.7448 141.995 63.7089 141.995H60.1941V144.819H63.2086C63.2454 144.819 63.2788 144.829 63.309 144.85C63.3386 144.87 63.3638 144.9 63.3858 144.937C63.4065 144.974 63.4219 145.025 63.4312 145.09C63.4403 145.155 63.4451 145.231 63.4451 145.319C63.4451 145.403 63.4401 145.474 63.4312 145.535C63.4219 145.595 63.4065 145.645 63.3858 145.682C63.3648 145.719 63.3393 145.745 63.309 145.761C63.279 145.778 63.2447 145.786 63.2086 145.786H60.1941V149.006H63.7566C63.7935 149.006 63.8268 149.016 63.8571 149.033C63.8864 149.052 63.9137 149.081 63.9364 149.122C63.9588 149.161 63.9755 149.211 63.9849 149.274C63.9955 149.336 64 149.413 64 149.506Z" fill="white"/>
<path d="M81 149.766C81 149.802 80.9917 149.835 80.9749 149.865C80.9576 149.895 80.9264 149.919 80.8791 149.938C80.8313 149.955 80.7673 149.971 80.6872 149.983C80.6064 149.994 80.5025 150 80.3747 150C80.2094 150 80.0735 149.993 79.9697 149.979C79.8656 149.965 79.787 149.94 79.7343 149.903C79.6822 149.867 79.6406 149.825 79.6073 149.779L76.2241 145.32V149.779C76.2241 149.812 76.2143 149.843 76.1959 149.873C76.1771 149.902 76.1427 149.926 76.0952 149.941C76.0484 149.957 75.9849 149.971 75.9071 149.982C75.8281 149.994 75.73 150 75.6119 150C75.4975 150 75.4004 149.994 75.3203 149.982C75.2394 149.971 75.1756 149.956 75.1289 149.941C75.0809 149.925 75.048 149.902 75.0287 149.873C75.0103 149.843 75 149.812 75 149.779V141.221C75 141.183 75.009 141.152 75.0287 141.123C75.047 141.096 75.0809 141.074 75.1289 141.058C75.1762 141.042 75.24 141.029 75.3203 141.017C75.4004 141.006 75.4975 141 75.6119 141C75.7292 141 75.8279 141.006 75.9071 141.017C75.9852 141.029 76.0477 141.043 76.0952 141.058C76.1427 141.074 76.176 141.096 76.1959 141.123C76.2137 141.151 76.2241 141.183 76.2241 141.221V145.182L79.4794 141.221C79.5083 141.179 79.5404 141.144 79.5796 141.117C79.6173 141.089 79.6638 141.068 79.7183 141.052C79.7734 141.036 79.839 141.023 79.9175 141.014C79.9965 141.005 80.096 141 80.2197 141C80.3429 141 80.4429 141.006 80.5178 141.017C80.5934 141.029 80.6539 141.044 80.6991 141.062C80.7443 141.08 80.7748 141.103 80.7905 141.131C80.8078 141.158 80.8166 141.188 80.8166 141.219C80.8166 141.279 80.8003 141.339 80.7704 141.399C80.7394 141.459 80.6802 141.542 80.595 141.647L77.546 145.182L80.8295 149.414C80.9093 149.533 80.9576 149.615 80.9749 149.658C80.9915 149.703 81 149.738 81 149.766Z" fill="white"/>
<path d="M90 149.482C90 149.573 89.994 149.652 89.9846 149.713C89.9745 149.776 89.9586 149.829 89.9361 149.873C89.9139 149.916 89.8865 149.949 89.8535 149.97C89.8218 149.99 89.7831 150 89.7373 150H85.4766C85.3621 150 85.2543 149.965 85.1525 149.893C85.0509 149.821 85 149.696 85 149.515V141.221C85 141.184 85.0087 141.152 85.0295 141.124C85.049 141.096 85.084 141.074 85.1338 141.058C85.1836 141.042 85.2508 141.028 85.335 141.017C85.4198 141.006 85.5213 141 85.6405 141C85.7645 141 85.8677 141.006 85.9503 141.017C86.0329 141.028 86.0979 141.043 86.1477 141.058C86.1975 141.074 86.2325 141.096 86.2522 141.124C86.2717 141.152 86.2818 141.183 86.2818 141.221V148.968H89.7395C89.7842 148.968 89.8226 148.979 89.8551 149C89.8873 149.02 89.9147 149.05 89.9377 149.089C89.9605 149.129 89.9767 149.18 89.9865 149.245C89.9951 149.31 90 149.389 90 149.482Z" fill="white"/>
<path d="M95 149.78C95 149.816 94.992 149.848 94.9768 149.876C94.9614 149.904 94.9335 149.926 94.8947 149.942C94.8559 149.958 94.8046 149.971 94.7411 149.983C94.6764 149.993 94.5964 150 94.4996 150C94.4065 150 94.3272 149.994 94.2612 149.983C94.1958 149.971 94.1437 149.957 94.1053 149.942C94.0662 149.926 94.0392 149.904 94.0232 149.876C94.0084 149.849 94 149.817 94 149.78V141.22C94 141.183 94.0089 141.152 94.026 141.123C94.0435 141.096 94.0717 141.074 94.1131 141.058C94.1536 141.042 94.2061 141.028 94.269 141.017C94.3335 141.005 94.4093 141 94.4985 141C94.5949 141 94.6753 141.005 94.7403 141.017C94.804 141.029 94.8544 141.043 94.8939 141.058C94.9325 141.074 94.9597 141.096 94.976 141.123C94.9907 141.151 94.999 141.183 94.999 141.22L95 149.78Z" fill="white"/>
<path d="M105 149.482C105 149.573 104.994 149.652 104.984 149.713C104.975 149.776 104.958 149.829 104.936 149.873C104.914 149.916 104.886 149.949 104.854 149.97C104.822 149.99 104.783 150 104.738 150H100.477C100.362 150 100.254 149.965 100.152 149.893C100.051 149.821 100 149.696 100 149.515V141.221C100 141.184 100.01 141.152 100.031 141.124C100.05 141.096 100.085 141.074 100.135 141.058C100.185 141.042 100.252 141.028 100.336 141.017C100.42 141.006 100.522 141 100.641 141C100.765 141 100.869 141.006 100.951 141.017C101.034 141.028 101.099 141.043 101.149 141.058C101.198 141.074 101.232 141.096 101.253 141.124C101.272 141.152 101.283 141.183 101.283 141.221V148.968H104.739C104.784 148.968 104.823 148.979 104.855 149C104.887 149.02 104.915 149.05 104.938 149.089C104.96 149.129 104.976 149.18 104.986 149.245C104.994 149.31 105 149.389 105 149.482Z" fill="white"/>
<path d="M110 149.78C110 149.816 109.992 149.848 109.976 149.876C109.961 149.904 109.934 149.926 109.895 149.942C109.856 149.958 109.804 149.971 109.741 149.983C109.676 149.993 109.597 150 109.499 150C109.407 150 109.327 149.994 109.261 149.983C109.196 149.971 109.143 149.957 109.105 149.942C109.066 149.926 109.039 149.904 109.023 149.876C109.008 149.849 109 149.817 109 149.78V141.22C109 141.183 109.009 141.152 109.026 141.123C109.043 141.096 109.072 141.074 109.113 141.058C109.153 141.042 109.206 141.028 109.269 141.017C109.334 141.005 109.409 141 109.499 141C109.595 141 109.676 141.005 109.74 141.017C109.804 141.029 109.855 141.043 109.894 141.058C109.933 141.074 109.96 141.096 109.976 141.123C109.991 141.151 110 141.183 110 141.22L110 149.78Z" fill="white"/>
<path d="M121 148.648C121 148.72 120.997 148.784 120.993 148.839C120.988 148.892 120.979 148.939 120.967 148.981C120.954 149.021 120.938 149.058 120.918 149.089C120.899 149.121 120.863 149.159 120.813 149.205C120.763 149.25 120.659 149.319 120.501 149.412C120.342 149.505 120.145 149.595 119.909 149.684C119.673 149.772 119.402 149.848 119.096 149.908C118.791 149.97 118.456 150 118.093 150C117.467 150 116.903 149.905 116.397 149.715C115.893 149.525 115.462 149.245 115.107 148.874C114.752 148.503 114.478 148.045 114.287 147.5C114.096 146.954 114 146.327 114 145.616C114 144.888 114.104 144.239 114.31 143.668C114.517 143.097 114.806 142.614 115.179 142.219C115.551 141.823 115.998 141.521 116.517 141.313C117.036 141.104 117.612 141 118.242 141C118.521 141 118.791 141.024 119.055 141.071C119.319 141.119 119.562 141.179 119.785 141.251C120.009 141.324 120.209 141.407 120.382 141.502C120.556 141.597 120.676 141.675 120.745 141.735C120.811 141.798 120.854 141.844 120.875 141.874C120.894 141.906 120.911 141.943 120.923 141.987C120.936 142.03 120.945 142.081 120.953 142.139C120.96 142.198 120.964 142.268 120.964 142.35C120.964 142.44 120.959 142.518 120.949 142.58C120.939 142.644 120.924 142.697 120.904 142.74C120.885 142.783 120.86 142.815 120.833 142.834C120.805 142.855 120.772 142.865 120.732 142.865C120.662 142.865 120.565 142.821 120.44 142.733C120.315 142.645 120.153 142.547 119.956 142.44C119.759 142.334 119.519 142.237 119.238 142.148C118.955 142.06 118.617 142.016 118.222 142.016C117.793 142.016 117.402 142.093 117.049 142.25C116.698 142.406 116.396 142.636 116.146 142.939C115.897 143.243 115.703 143.612 115.565 144.049C115.428 144.486 115.359 144.985 115.359 145.545C115.359 146.102 115.425 146.594 115.557 147.022C115.689 147.45 115.879 147.808 116.127 148.094C116.374 148.381 116.678 148.599 117.037 148.747C117.397 148.893 117.804 148.967 118.258 148.967C118.643 148.967 118.979 148.924 119.267 148.839C119.554 148.752 119.798 148.657 120.001 148.55C120.203 148.443 120.369 148.347 120.499 148.262C120.63 148.175 120.732 148.133 120.807 148.133C120.842 148.133 120.872 148.139 120.897 148.152C120.922 148.167 120.941 148.193 120.957 148.231C120.972 148.269 120.983 148.322 120.99 148.39C120.998 148.458 121 148.544 121 148.648Z" fill="white"/>
<path d="M132 149.78C132 149.816 131.99 149.848 131.969 149.876C131.95 149.904 131.914 149.926 131.864 149.942C131.814 149.958 131.748 149.971 131.665 149.983C131.582 149.993 131.481 150 131.362 150C131.232 150 131.126 149.994 131.047 149.983C130.967 149.971 130.902 149.957 130.852 149.942C130.801 149.926 130.766 149.904 130.746 149.876C130.726 149.849 130.715 149.817 130.715 149.78V145.824H126.293V149.78C126.293 149.816 126.283 149.848 126.263 149.876C126.243 149.904 126.207 149.926 126.158 149.942C126.107 149.958 126.04 149.971 125.959 149.983C125.875 149.993 125.773 150 125.647 150C125.526 150 125.423 149.994 125.339 149.983C125.253 149.971 125.186 149.957 125.136 149.942C125.086 149.926 125.051 149.904 125.031 149.876C125.011 149.849 125 149.817 125 149.78V141.22C125 141.183 125.01 141.152 125.031 141.123C125.05 141.096 125.086 141.074 125.136 141.058C125.186 141.042 125.254 141.028 125.339 141.017C125.423 141.005 125.526 141 125.647 141C125.771 141 125.875 141.005 125.959 141.017C126.042 141.029 126.107 141.043 126.158 141.058C126.207 141.074 126.242 141.096 126.263 141.123C126.282 141.151 126.293 141.183 126.293 141.22V144.79H130.715V141.22C130.715 141.183 130.725 141.152 130.746 141.123C130.765 141.096 130.801 141.074 130.852 141.058C130.902 141.042 130.967 141.028 131.047 141.017C131.127 141.005 131.233 141 131.362 141C131.482 141 131.584 141.005 131.665 141.017C131.749 141.029 131.814 141.043 131.864 141.058C131.914 141.074 131.949 141.096 131.969 141.123C131.989 141.151 132 141.183 132 141.22V149.78Z" fill="white"/>
<path d="M133 129.136C132.957 117.327 128.84 105.99 121.414 96.9055C114.199 88.0786 103.846 81.9975 92.7502 79.8676C81.2007 77.6503 69.1122 79.7255 58.9024 85.6072C49.0311 91.2939 41.4466 100.455 37.3002 111.121C35.0802 116.832 34.0223 123.007 34 129.135C33.9909 131.621 37.7953 131.62 37.8045 129.135C37.8461 117.693 42.0178 106.615 49.5845 98.1063C57.0331 89.7308 67.4773 84.3003 78.546 83.0988C89.954 81.8608 101.392 85.0568 110.65 91.882C119.608 98.486 125.82 108.501 128.189 119.417C128.882 122.611 129.183 125.868 129.195 129.135C129.204 131.621 133.009 131.622 133 129.136Z" fill="white"/>
<path d="M83.8277 83C95.4068 82.9563 106.523 78.7868 115.43 71.2651C124.085 63.957 130.048 53.4706 132.136 42.2331C132.709 39.1474 132.989 36.0028 133 32.8636C133.009 30.3783 129.23 30.3793 129.221 32.8636C129.179 44.3033 125.035 55.3785 117.519 63.8845C110.12 72.258 99.7448 77.6868 88.7493 78.888C87.1154 79.0663 85.4709 79.1395 83.8285 79.1462C81.3911 79.1554 81.3901 83.009 83.8277 83Z" fill="white"/>
<path d="M38 129.134C38 118.651 38 108.168 38 97.6857C38 82.9428 38 68.2007 38 53.4581C38 51.9276 38 50.3971 38 48.8664C38 46.3779 34 46.3779 34 48.8664C34 59.349 34 69.8318 34 80.3143C34 95.0572 34 109.799 34 124.542C34 126.072 34 127.603 34 129.134C34 131.622 38 131.622 38 129.134Z" fill="white"/>
<path d="M82.1535 1.82817C82.1117 13.0494 77.8941 23.9125 70.2442 32.2556C62.7137 40.469 52.1549 45.7942 40.9644 46.9722C27.0835 48.4337 13.1864 43.5736 3.29048 33.9292C1.52837 32.2118 -1.1917 34.8837 0.571167 36.6014C10.3232 46.1062 23.6644 51.3319 37.4009 50.9836C49.1036 50.6871 60.3585 46.1946 69.139 38.6344C79.8457 29.4161 85.9479 15.7684 86 1.82767C86.0087 -0.609684 82.1624 -0.608928 82.1535 1.82817Z" fill="white"/>
</svg>
