<?xml version="1.0" encoding="utf-8"?>
<!-- Generator: Adobe Illustrator 16.0.0, SVG Export Plug-In . SVG Version: 6.00 Build 0)  -->
<!DOCTYPE svg PUBLIC "-//W3C//DTD SVG 1.1//EN" "http://www.w3.org/Graphics/SVG/1.1/DTD/svg11.dtd">
<svg version="1.1" id="Layer_1" xmlns="http://www.w3.org/2000/svg" xmlns:xlink="http://www.w3.org/1999/xlink" x="0px" y="0px"
	 width="630.775px" height="669.232px" viewBox="0 0 630.775 669.232" enable-background="new 0 0 630.775 669.232"
	 xml:space="preserve">
<rect id="Background" x="0.02" y="0.122" fill="#161616" width="630.775" height="669.233"/>
<g id="Yassine_Klilich">
	<path fill="#FFFFFF" d="M81.432,609.61v13.124c0,0.146-0.036,0.275-0.112,0.385c-0.07,0.114-0.2,0.201-0.383,0.263
		c-0.185,0.063-0.43,0.117-0.74,0.164c-0.307,0.045-0.68,0.071-1.118,0.071c-0.457,0-0.834-0.021-1.138-0.071
		c-0.3-0.047-0.544-0.102-0.735-0.164c-0.189-0.063-0.325-0.15-0.397-0.263c-0.071-0.107-0.109-0.237-0.109-0.385V609.61
		l-10.073-20.085c-0.201-0.422-0.326-0.752-0.372-0.991c-0.046-0.237,0-0.421,0.14-0.55c0.138-0.128,0.389-0.21,0.741-0.248
		c0.358-0.036,0.842-0.055,1.445-0.055c0.55,0,0.995,0.019,1.334,0.055c0.342,0.038,0.609,0.087,0.814,0.152
		c0.201,0.065,0.352,0.153,0.451,0.273c0.1,0.118,0.198,0.271,0.286,0.453l4.927,10.235c0.457,0.97,0.917,1.988,1.372,3.054
		c0.451,1.061,0.918,2.137,1.392,3.216h0.057c0.419-1.046,0.855-2.087,1.301-3.122c0.445-1.036,0.897-2.059,1.355-3.068
		l4.953-10.291c0.059-0.185,0.133-0.341,0.234-0.47c0.104-0.124,0.239-0.222,0.411-0.288c0.176-0.063,0.417-0.112,0.73-0.149
		c0.308-0.037,0.706-0.058,1.183-0.058c0.66,0,1.18,0.023,1.556,0.068c0.375,0.047,0.638,0.135,0.785,0.262
		c0.146,0.127,0.195,0.312,0.148,0.55c-0.046,0.237-0.17,0.56-0.372,0.964L81.432,609.61z"/>
	<path fill="#FFFFFF" d="M130.459,621.771c0.146,0.398,0.227,0.728,0.234,0.977c0.009,0.248-0.063,0.438-0.209,0.564
		c-0.146,0.125-0.39,0.21-0.729,0.247c-0.339,0.036-0.793,0.056-1.359,0.056c-0.569,0-1.023-0.014-1.361-0.042
		c-0.339-0.023-0.597-0.07-0.771-0.137c-0.174-0.064-0.305-0.152-0.387-0.259c-0.083-0.112-0.161-0.251-0.233-0.412l-3.056-8.667
		h-14.8l-2.917,8.56c-0.055,0.164-0.129,0.305-0.22,0.426c-0.092,0.117-0.228,0.219-0.398,0.306
		c-0.175,0.082-0.422,0.142-0.743,0.179c-0.319,0.036-0.737,0.055-1.252,0.055c-0.53,0-0.965-0.021-1.308-0.066
		c-0.339-0.046-0.578-0.134-0.715-0.264c-0.138-0.126-0.201-0.314-0.192-0.563c0.011-0.248,0.087-0.573,0.234-0.979l11.939-33.069
		c0.074-0.201,0.171-0.366,0.289-0.494c0.119-0.125,0.298-0.229,0.526-0.306c0.226-0.07,0.523-0.122,0.877-0.148
		c0.358-0.029,0.814-0.042,1.361-0.042c0.588,0,1.072,0.013,1.458,0.042c0.389,0.021,0.695,0.075,0.936,0.148
		c0.237,0.073,0.421,0.182,0.55,0.315c0.128,0.139,0.229,0.306,0.304,0.51L130.459,621.771z M115.133,592.577h-0.022l-6.135,17.746
		h12.38L115.133,592.577z"/>
	<path fill="#FFFFFF" d="M165.948,613.461c0,1.666-0.308,3.155-0.922,4.457c-0.614,1.306-1.467,2.407-2.562,3.313
		c-1.092,0.91-2.373,1.591-3.852,2.049c-1.477,0.458-3.067,0.688-4.771,0.688c-1.193,0-2.298-0.104-3.314-0.308
		c-1.02-0.202-1.926-0.445-2.724-0.743c-0.8-0.292-1.469-0.592-2.01-0.905c-0.54-0.313-0.916-0.578-1.128-0.8
		c-0.211-0.221-0.367-0.5-0.468-0.84c-0.102-0.339-0.151-0.793-0.151-1.359c0-0.402,0.021-0.739,0.057-1.007
		c0.036-0.266,0.091-0.482,0.165-0.646c0.068-0.165,0.164-0.279,0.273-0.347c0.11-0.064,0.238-0.098,0.387-0.098
		c0.256,0,0.617,0.158,1.086,0.469c0.468,0.313,1.066,0.649,1.802,1.018c0.732,0.368,1.621,0.712,2.655,1.031
		c1.034,0.32,2.229,0.48,3.59,0.48c1.025,0,1.968-0.138,2.817-0.411c0.855-0.271,1.587-0.666,2.201-1.169s1.086-1.122,1.417-1.854
		c0.332-0.733,0.494-1.568,0.494-2.504c0-1.013-0.229-1.871-0.688-2.587c-0.456-0.72-1.063-1.346-1.813-1.887
		c-0.751-0.539-1.612-1.039-2.573-1.482c-0.962-0.45-1.946-0.91-2.958-1.376c-1.01-0.469-1.988-0.986-2.942-1.56
		c-0.953-0.566-1.809-1.237-2.561-2.006c-0.751-0.771-1.359-1.674-1.83-2.71c-0.468-1.036-0.702-2.275-0.702-3.729
		c0-1.485,0.271-2.813,0.813-3.978c0.542-1.165,1.293-2.142,2.256-2.931c0.963-0.788,2.109-1.391,3.439-1.805
		c1.333-0.414,2.766-0.619,4.307-0.619c0.789,0,1.583,0.067,2.38,0.205c0.798,0.139,1.55,0.319,2.256,0.551
		c0.705,0.229,1.334,0.486,1.884,0.771c0.552,0.288,0.913,0.516,1.088,0.688c0.174,0.173,0.287,0.312,0.343,0.412
		c0.059,0.101,0.104,0.229,0.138,0.385c0.036,0.156,0.067,0.346,0.083,0.564c0.02,0.221,0.028,0.505,0.028,0.854
		c0,0.33-0.019,0.627-0.042,0.88c-0.027,0.258-0.072,0.475-0.125,0.647c-0.057,0.172-0.133,0.302-0.234,0.385
		c-0.101,0.082-0.212,0.124-0.343,0.124c-0.203,0-0.521-0.128-0.949-0.389c-0.435-0.258-0.962-0.543-1.583-0.867
		c-0.624-0.32-1.361-0.614-2.214-0.881c-0.854-0.266-1.813-0.399-2.876-0.399c-0.993,0-1.854,0.132-2.588,0.399
		c-0.731,0.267-1.338,0.62-1.813,1.06c-0.475,0.44-0.835,0.962-1.071,1.568c-0.239,0.604-0.357,1.248-0.357,1.926
		c0,0.991,0.229,1.844,0.688,2.56c0.46,0.718,1.068,1.348,1.83,1.899c0.762,0.55,1.628,1.057,2.601,1.513
		c0.972,0.459,1.962,0.922,2.975,1.393c1.008,0.467,1.997,0.979,2.973,1.541c0.972,0.558,1.838,1.219,2.6,1.979
		c0.763,0.762,1.379,1.66,1.846,2.696C165.714,610.826,165.948,612.049,165.948,613.461z"/>
	<path fill="#FFFFFF" d="M202.262,613.461c0,1.666-0.31,3.155-0.924,4.457c-0.612,1.306-1.467,2.407-2.559,3.313
		c-1.095,0.91-2.376,1.591-3.852,2.049c-1.48,0.458-3.07,0.688-4.774,0.688c-1.192,0-2.298-0.104-3.316-0.308
		c-1.015-0.202-1.926-0.445-2.724-0.743c-0.798-0.292-1.467-0.592-2.005-0.905c-0.542-0.313-0.918-0.578-1.128-0.8
		c-0.212-0.221-0.368-0.5-0.468-0.84c-0.103-0.339-0.154-0.793-0.154-1.359c0-0.402,0.021-0.739,0.059-1.007
		c0.033-0.266,0.091-0.482,0.164-0.646c0.074-0.165,0.165-0.279,0.275-0.347c0.108-0.064,0.238-0.098,0.385-0.098
		c0.259,0,0.619,0.158,1.086,0.469c0.468,0.313,1.068,0.649,1.805,1.018c0.731,0.368,1.618,0.712,2.652,1.031
		c1.036,0.32,2.233,0.48,3.593,0.48c1.027,0,1.97-0.138,2.82-0.411c0.852-0.271,1.587-0.666,2.201-1.169s1.086-1.122,1.417-1.854
		c0.331-0.733,0.493-1.568,0.493-2.504c0-1.013-0.229-1.871-0.687-2.587c-0.459-0.72-1.063-1.346-1.814-1.887
		c-0.751-0.539-1.609-1.039-2.573-1.482c-0.962-0.45-1.948-0.91-2.958-1.376c-1.009-0.469-1.99-0.986-2.94-1.56
		c-0.958-0.566-1.809-1.237-2.56-2.006c-0.751-0.771-1.361-1.674-1.83-2.71c-0.468-1.036-0.702-2.275-0.702-3.729
		c0-1.485,0.271-2.813,0.813-3.978s1.292-2.142,2.257-2.931c0.962-0.788,2.107-1.391,3.438-1.805
		c1.33-0.414,2.768-0.619,4.306-0.619c0.788,0,1.582,0.067,2.379,0.205c0.798,0.139,1.549,0.319,2.256,0.551
		c0.705,0.229,1.337,0.486,1.884,0.771c0.55,0.288,0.916,0.516,1.087,0.688c0.173,0.174,0.291,0.312,0.348,0.412
		c0.055,0.1,0.1,0.229,0.138,0.385c0.035,0.156,0.063,0.346,0.08,0.564c0.02,0.221,0.024,0.505,0.024,0.854
		c0,0.33-0.013,0.627-0.042,0.88c-0.022,0.258-0.066,0.475-0.122,0.647c-0.058,0.172-0.132,0.302-0.233,0.385
		c-0.104,0.082-0.214,0.124-0.345,0.124c-0.202,0-0.521-0.128-0.949-0.389c-0.434-0.258-0.958-0.543-1.583-0.867
		c-0.624-0.32-1.361-0.614-2.214-0.881c-0.854-0.266-1.811-0.399-2.875-0.399c-0.99,0-1.854,0.132-2.586,0.399
		c-0.734,0.267-1.341,0.62-1.816,1.06c-0.477,0.44-0.834,0.962-1.073,1.568c-0.239,0.604-0.354,1.248-0.354,1.926
		c0,0.991,0.229,1.844,0.686,2.56c0.458,0.718,1.068,1.348,1.829,1.899c0.764,0.55,1.628,1.057,2.604,1.513
		c0.97,0.459,1.961,0.922,2.972,1.393c1.01,0.467,2,0.979,2.971,1.541c0.973,0.558,1.839,1.219,2.604,1.979
		c0.76,0.762,1.375,1.66,1.843,2.696C202.029,610.826,202.262,612.049,202.262,613.461z"/>
	<path fill="#FFFFFF" d="M224.188,622.733c0,0.146-0.037,0.275-0.113,0.385c-0.07,0.113-0.201,0.2-0.385,0.263
		c-0.186,0.063-0.426,0.118-0.729,0.165c-0.306,0.041-0.683,0.067-1.145,0.067c-0.44,0-0.816-0.023-1.128-0.067
		c-0.311-0.047-0.562-0.104-0.74-0.165c-0.184-0.063-0.313-0.15-0.388-0.263c-0.07-0.109-0.11-0.237-0.11-0.385V588.56
		c0-0.146,0.042-0.271,0.125-0.386c0.079-0.109,0.217-0.196,0.41-0.26c0.193-0.065,0.443-0.119,0.743-0.165
		c0.306-0.045,0.665-0.066,1.086-0.066c0.459,0,0.839,0.021,1.145,0.066c0.305,0.048,0.542,0.104,0.729,0.165
		c0.184,0.065,0.311,0.152,0.385,0.26c0.074,0.112,0.113,0.238,0.113,0.386L224.188,622.733L224.188,622.733z"/>
	<path fill="#FFFFFF" d="M270.987,621.495c0,0.368-0.063,0.679-0.185,0.938c-0.12,0.258-0.284,0.468-0.483,0.633
		c-0.199,0.166-0.423,0.285-0.668,0.355c-0.247,0.073-0.494,0.11-0.741,0.11h-1.563c-0.494,0-0.928-0.051-1.298-0.15
		c-0.369-0.102-0.721-0.283-1.052-0.55c-0.331-0.264-0.664-0.629-0.996-1.088c-0.331-0.455-0.685-1.046-1.058-1.761l-10.861-20.251
		c-0.566-1.049-1.141-2.144-1.717-3.289c-0.577-1.148-1.11-2.262-1.61-3.345h-0.055c0.036,1.318,0.063,2.669,0.082,4.045
		c0.018,1.379,0.024,2.745,0.024,4.103v21.485c0,0.128-0.038,0.255-0.115,0.372c-0.078,0.118-0.212,0.212-0.396,0.272
		c-0.185,0.066-0.426,0.119-0.726,0.165c-0.304,0.046-0.683,0.068-1.149,0.068c-0.464,0-0.847-0.022-1.146-0.068
		s-0.539-0.104-0.711-0.165c-0.175-0.063-0.302-0.154-0.377-0.272c-0.078-0.117-0.118-0.244-0.118-0.372v-32.849
		c0-0.731,0.212-1.256,0.627-1.569c0.414-0.311,0.869-0.469,1.363-0.469h2.324c0.551,0,1.013,0.047,1.38,0.138
		c0.367,0.093,0.698,0.246,0.994,0.455c0.295,0.212,0.577,0.504,0.854,0.881c0.273,0.375,0.563,0.848,0.864,1.416l8.35,15.628
		c0.516,0.954,1.011,1.885,1.49,2.792c0.478,0.912,0.938,1.806,1.384,2.684c0.446,0.882,0.883,1.751,1.316,2.604
		c0.436,0.854,0.865,1.711,1.292,2.573h0.022c-0.035-1.448-0.06-2.959-0.066-4.529c-0.011-1.569-0.017-3.075-0.017-4.526v-19.316
		c0-0.124,0.036-0.247,0.117-0.354c0.078-0.11,0.208-0.21,0.392-0.288c0.186-0.084,0.429-0.142,0.729-0.18
		c0.3-0.036,0.692-0.055,1.175-0.055c0.425,0,0.794,0.019,1.104,0.055c0.309,0.038,0.551,0.096,0.729,0.18
		c0.175,0.078,0.299,0.178,0.377,0.288s0.116,0.23,0.116,0.354L270.987,621.495L270.987,621.495z"/>
	<path fill="#FFFFFF" d="M310.686,621.495c0,0.33-0.022,0.62-0.057,0.866c-0.036,0.252-0.102,0.455-0.191,0.623
		c-0.092,0.164-0.2,0.285-0.315,0.354c-0.12,0.073-0.257,0.113-0.397,0.113h-17.086c-0.425,0-0.821-0.142-1.196-0.431
		c-0.377-0.283-0.563-0.78-0.563-1.495v-31.755c0-0.715,0.188-1.214,0.563-1.499s0.773-0.428,1.196-0.428h16.894
		c0.146,0,0.279,0.036,0.399,0.112c0.114,0.07,0.212,0.192,0.289,0.354c0.068,0.165,0.134,0.371,0.18,0.619
		c0.045,0.25,0.068,0.555,0.068,0.922c0,0.33-0.023,0.619-0.068,0.869c-0.046,0.249-0.11,0.445-0.18,0.602
		c-0.073,0.16-0.169,0.271-0.289,0.349c-0.119,0.07-0.258,0.109-0.399,0.109H295.61v11.171h11.941c0.146,0,0.277,0.041,0.397,0.124
		c0.117,0.078,0.217,0.197,0.304,0.344c0.082,0.147,0.144,0.351,0.181,0.605c0.036,0.258,0.055,0.56,0.055,0.908
		c0,0.33-0.02,0.613-0.055,0.853c-0.037,0.239-0.099,0.437-0.181,0.581c-0.083,0.147-0.184,0.252-0.304,0.313
		c-0.119,0.066-0.255,0.098-0.397,0.098H295.61v12.741h14.112c0.146,0,0.277,0.038,0.397,0.108c0.116,0.074,0.225,0.188,0.314,0.35
		c0.089,0.155,0.154,0.354,0.191,0.603C310.668,620.823,310.686,621.128,310.686,621.495z"/>
	<path fill="#FFFFFF" d="M375.201,622.68c0,0.146-0.032,0.277-0.097,0.397c-0.067,0.116-0.188,0.213-0.371,0.289
		c-0.186,0.07-0.434,0.133-0.743,0.18c-0.313,0.045-0.715,0.068-1.21,0.068c-0.64,0-1.166-0.028-1.568-0.083
		s-0.707-0.155-0.911-0.303c-0.201-0.146-0.362-0.313-0.491-0.495l-13.099-17.802v17.802c0,0.129-0.038,0.255-0.108,0.372
		c-0.073,0.119-0.206,0.212-0.391,0.273c-0.181,0.063-0.427,0.118-0.728,0.165c-0.306,0.045-0.687,0.068-1.144,0.068
		c-0.442,0-0.818-0.023-1.129-0.068c-0.313-0.047-0.56-0.104-0.74-0.165c-0.187-0.063-0.313-0.154-0.389-0.273
		c-0.07-0.117-0.11-0.243-0.11-0.372v-34.169c0-0.149,0.034-0.275,0.11-0.389c0.071-0.11,0.202-0.197,0.389-0.261
		c0.183-0.064,0.43-0.117,0.74-0.165c0.311-0.045,0.687-0.066,1.129-0.066c0.454,0,0.836,0.021,1.144,0.066
		c0.302,0.048,0.544,0.104,0.728,0.165c0.185,0.065,0.313,0.152,0.391,0.261c0.068,0.111,0.108,0.237,0.108,0.389v15.815
		l12.604-15.815c0.111-0.165,0.235-0.308,0.388-0.413c0.146-0.113,0.326-0.196,0.537-0.261c0.213-0.064,0.467-0.114,0.771-0.151
		c0.307-0.037,0.691-0.056,1.171-0.056c0.477,0,0.863,0.021,1.153,0.066c0.293,0.047,0.527,0.107,0.702,0.182
		c0.175,0.071,0.293,0.164,0.354,0.273c0.066,0.109,0.101,0.229,0.101,0.354c0,0.236-0.063,0.479-0.179,0.718
		c-0.12,0.239-0.35,0.569-0.68,0.991l-11.804,14.109l12.712,16.896c0.31,0.478,0.496,0.802,0.563,0.976
		C375.168,622.43,375.201,622.569,375.201,622.68z"/>
	<path fill="#FFFFFF" d="M410.139,621.39c0,0.362-0.022,0.675-0.058,0.918c-0.037,0.248-0.096,0.459-0.179,0.635
		c-0.082,0.171-0.183,0.302-0.305,0.385c-0.117,0.082-0.261,0.12-0.43,0.12h-15.732c-0.423,0-0.821-0.141-1.197-0.427
		c-0.375-0.284-0.563-0.78-0.563-1.499V588.56c0-0.146,0.031-0.271,0.108-0.386c0.072-0.109,0.201-0.196,0.385-0.26
		c0.185-0.065,0.433-0.119,0.743-0.165c0.313-0.045,0.688-0.066,1.128-0.066c0.458,0,0.839,0.021,1.145,0.066
		c0.305,0.046,0.545,0.104,0.729,0.165c0.185,0.064,0.313,0.151,0.387,0.26c0.071,0.112,0.108,0.237,0.108,0.386v30.788h12.769
		c0.165,0,0.307,0.041,0.427,0.125c0.119,0.079,0.22,0.199,0.305,0.353c0.084,0.16,0.145,0.363,0.18,0.62
		C410.121,620.706,410.139,621.02,410.139,621.39z"/>
	<path fill="#FFFFFF" d="M430.524,622.733c0,0.146-0.038,0.275-0.11,0.385c-0.072,0.113-0.204,0.2-0.389,0.263
		c-0.184,0.063-0.427,0.118-0.728,0.165c-0.308,0.041-0.687,0.067-1.146,0.067c-0.44,0-0.816-0.023-1.13-0.067
		c-0.31-0.047-0.557-0.104-0.739-0.165c-0.185-0.063-0.313-0.15-0.389-0.263c-0.07-0.109-0.11-0.237-0.11-0.385V588.56
		c0-0.146,0.042-0.271,0.123-0.386c0.083-0.109,0.217-0.196,0.413-0.26c0.192-0.065,0.441-0.119,0.739-0.165
		c0.306-0.045,0.665-0.066,1.088-0.066c0.457,0,0.838,0.021,1.146,0.066c0.302,0.048,0.54,0.104,0.728,0.165
		c0.183,0.065,0.313,0.152,0.389,0.26c0.07,0.112,0.109,0.238,0.109,0.386L430.524,622.733L430.524,622.733z"/>
	<path fill="#FFFFFF" d="M468.878,621.39c0,0.362-0.021,0.675-0.06,0.918c-0.034,0.248-0.096,0.459-0.177,0.635
		c-0.081,0.171-0.185,0.302-0.305,0.385c-0.116,0.082-0.261,0.12-0.429,0.12h-15.736c-0.425,0-0.822-0.141-1.198-0.427
		c-0.375-0.284-0.563-0.78-0.563-1.499V588.56c0-0.146,0.036-0.271,0.113-0.386c0.07-0.109,0.201-0.196,0.385-0.26
		c0.185-0.065,0.433-0.119,0.743-0.165c0.311-0.045,0.688-0.066,1.128-0.066c0.458,0,0.839,0.021,1.145,0.066
		c0.305,0.046,0.545,0.104,0.729,0.165c0.185,0.064,0.311,0.151,0.385,0.26c0.071,0.112,0.11,0.237,0.11,0.386v30.788h12.767
		c0.165,0,0.309,0.041,0.429,0.125c0.119,0.079,0.221,0.199,0.306,0.353c0.082,0.16,0.143,0.363,0.179,0.62
		C468.856,620.706,468.878,621.02,468.878,621.39z"/>
	<path fill="#FFFFFF" d="M489.26,622.733c0,0.146-0.037,0.275-0.113,0.385c-0.07,0.113-0.202,0.2-0.385,0.263
		c-0.187,0.063-0.429,0.118-0.729,0.165c-0.307,0.041-0.685,0.067-1.146,0.067c-0.439,0-0.816-0.023-1.128-0.067
		c-0.311-0.047-0.562-0.104-0.741-0.165c-0.182-0.063-0.312-0.15-0.387-0.263c-0.07-0.109-0.11-0.237-0.11-0.385V588.56
		c0-0.146,0.042-0.271,0.124-0.386c0.08-0.109,0.217-0.196,0.41-0.26c0.189-0.065,0.442-0.119,0.742-0.165
		c0.306-0.045,0.664-0.066,1.087-0.066c0.458,0,0.839,0.021,1.146,0.066c0.304,0.048,0.542,0.104,0.729,0.165
		c0.183,0.065,0.312,0.152,0.386,0.26c0.072,0.112,0.113,0.238,0.113,0.386L489.26,622.733L489.26,622.733z"/>
	<path fill="#FFFFFF" d="M532.924,618.412c0,0.294-0.012,0.551-0.027,0.774c-0.019,0.217-0.051,0.409-0.096,0.577
		c-0.046,0.164-0.106,0.313-0.182,0.438c-0.068,0.129-0.201,0.285-0.385,0.468c-0.184,0.186-0.568,0.466-1.152,0.842
		c-0.588,0.375-1.314,0.74-2.187,1.104c-0.871,0.354-1.871,0.661-3,0.907c-1.127,0.249-2.362,0.372-3.7,0.372
		c-2.312,0-4.395-0.385-6.26-1.155c-1.861-0.771-3.452-1.904-4.763-3.409c-1.311-1.503-2.321-3.358-3.026-5.568
		c-0.707-2.212-1.061-4.758-1.061-7.638c0-2.95,0.385-5.583,1.146-7.896c0.762-2.313,1.83-4.271,3.206-5.874
		c1.375-1.605,3.025-2.829,4.938-3.674c1.918-0.845,4.045-1.268,6.37-1.268c1.027,0,2.026,0.099,2.999,0.288
		c0.974,0.194,1.871,0.438,2.696,0.73c0.825,0.294,1.563,0.633,2.201,1.015c0.642,0.385,1.087,0.702,1.339,0.948
		c0.246,0.252,0.403,0.438,0.479,0.563c0.07,0.129,0.134,0.28,0.181,0.455c0.045,0.174,0.081,0.381,0.107,0.618
		c0.027,0.239,0.041,0.522,0.041,0.854c0,0.364-0.019,0.681-0.055,0.934c-0.037,0.259-0.093,0.473-0.166,0.646
		c-0.07,0.176-0.162,0.307-0.26,0.386c-0.104,0.084-0.228,0.125-0.373,0.125c-0.259,0-0.619-0.181-1.079-0.536
		c-0.462-0.358-1.058-0.755-1.785-1.188c-0.729-0.431-1.616-0.82-2.653-1.182c-1.042-0.357-2.289-0.537-3.746-0.537
		c-1.584,0-3.03,0.313-4.33,0.948c-1.299,0.634-2.411,1.564-3.333,2.793c-0.919,1.23-1.639,2.729-2.146,4.499
		c-0.504,1.771-0.761,3.793-0.761,6.065c0,2.258,0.246,4.251,0.732,5.987c0.487,1.732,1.188,3.184,2.104,4.345
		c0.912,1.164,2.032,2.045,3.356,2.646c1.329,0.593,2.834,0.894,4.51,0.894c1.422,0,2.658-0.174,3.724-0.521
		c1.058-0.352,1.96-0.738,2.707-1.17c0.746-0.436,1.359-0.822,1.84-1.169c0.482-0.353,0.859-0.522,1.136-0.522
		c0.128,0,0.24,0.024,0.334,0.079c0.093,0.06,0.163,0.164,0.22,0.317c0.058,0.154,0.097,0.371,0.123,0.646
		C532.914,617.646,532.924,617.991,532.924,618.412z"/>
	<path fill="#FFFFFF" d="M575.264,622.733c0,0.146-0.037,0.275-0.113,0.385c-0.07,0.113-0.202,0.2-0.385,0.263
		c-0.186,0.063-0.427,0.118-0.729,0.165c-0.304,0.041-0.675,0.067-1.109,0.067c-0.479,0-0.866-0.023-1.156-0.067
		c-0.294-0.047-0.532-0.104-0.715-0.165c-0.187-0.063-0.313-0.15-0.386-0.263c-0.073-0.109-0.113-0.237-0.113-0.385V606.94h-16.205
		v15.793c0,0.146-0.038,0.275-0.11,0.385c-0.072,0.113-0.206,0.2-0.386,0.263c-0.184,0.063-0.43,0.118-0.729,0.165
		c-0.306,0.041-0.683,0.067-1.144,0.067c-0.443,0-0.82-0.023-1.129-0.067c-0.313-0.047-0.561-0.104-0.742-0.165
		c-0.185-0.063-0.313-0.15-0.386-0.263c-0.073-0.109-0.113-0.237-0.113-0.385V588.56c0-0.146,0.036-0.271,0.113-0.386
		c0.07-0.109,0.201-0.196,0.386-0.26c0.185-0.065,0.43-0.119,0.742-0.165c0.309-0.045,0.685-0.066,1.129-0.066
		c0.454,0,0.838,0.021,1.144,0.066c0.305,0.048,0.545,0.104,0.729,0.165c0.18,0.065,0.31,0.152,0.386,0.26
		c0.07,0.112,0.11,0.238,0.11,0.386v14.253h16.205V588.56c0-0.146,0.036-0.271,0.113-0.386c0.068-0.109,0.199-0.196,0.386-0.26
		c0.183-0.065,0.421-0.119,0.715-0.165c0.293-0.045,0.682-0.066,1.156-0.066c0.438,0,0.811,0.021,1.109,0.066
		c0.307,0.048,0.545,0.104,0.729,0.165c0.183,0.065,0.312,0.152,0.385,0.26c0.073,0.112,0.113,0.238,0.113,0.386V622.733z"/>
</g>
<g id="Logo">
	<g>
		<g>
			<path fill="#FFFFFF" d="M576.856,545.573c-0.169-45.957-16.4-90.078-45.679-125.432c-28.449-34.352-69.271-58.018-113.017-66.307
				c-45.537-8.629-93.199-0.553-133.454,22.336c-38.92,22.131-68.824,57.783-85.172,99.295
				c-8.753,22.225-12.924,46.256-13.012,70.104c-0.036,9.678,14.964,9.674,15,0c0.164-44.529,16.611-87.643,46.445-120.756
				c29.368-32.594,70.548-53.729,114.188-58.404c44.979-4.818,90.076,7.619,126.578,34.182
				c35.318,25.701,59.814,64.676,69.154,107.16c2.731,12.43,3.918,25.104,3.965,37.818
				C561.891,555.244,576.891,555.248,576.856,545.573L576.856,545.573z"/>
		</g>
	</g>
	<g>
		<g>
			<path fill="#FFFFFF" d="M381.69,365.406c45.958-0.17,90.08-16.4,125.433-45.682c34.353-28.449,58.018-69.27,66.307-113.015
				c2.274-12.012,3.384-24.253,3.429-36.473c0.035-9.675-14.965-9.671-15,0c-0.164,44.532-16.612,87.645-46.446,120.757
				c-29.366,32.596-70.546,53.729-114.188,58.404c-6.485,0.695-13.013,0.98-19.531,1.006
				C372.019,350.44,372.015,365.442,381.69,365.406L381.69,365.406z"/>
		</g>
	</g>
	<g>
		<g>
			<path fill="#FFFFFF" d="M201.691,545.573c0-40.746,0-81.492,0-122.238c0-57.307,0-114.61,0-171.915c0-5.949,0-11.897,0-17.848
				c0-9.673-15-9.673-15,0c0,40.745,0,81.493,0,122.239c0,57.307,0,114.609,0,171.914c0,5.949,0,11.896,0,17.848
				C186.691,555.246,201.691,555.246,201.691,545.573L201.691,545.573z"/>
		</g>
	</g>
	<g>
		<g>
			<path fill="#FFFFFF" d="M374.346,45.906c-0.162,44.533-16.61,87.645-46.444,120.756c-29.368,32.596-70.546,53.729-114.188,58.405
				c-54.134,5.8-108.331-13.488-146.924-51.764c-6.872-6.815-17.479,3.788-10.604,10.605c38.031,37.721,90.061,58.46,143.632,57.078
				c45.639-1.178,89.532-19.006,123.774-49.011c41.755-36.584,65.554-90.746,65.757-146.072
				C389.382,36.231,374.382,36.234,374.346,45.906L374.346,45.906z"/>
		</g>
	</g>
</g>
</svg>
